<mxfile host="app.diagrams.net" modified="2023-10-11T08:51:17.003Z" agent="Mozilla/5.0 (Windows NT 10.0; Win64; x64) AppleWebKit/537.36 (KHTML, like Gecko) Chrome/117.0.0.0 Safari/537.36" version="22.0.4" etag="8LMXmNzdw0HBWSpkAO3C" type="github">
  <diagram name="PÃ¡gina-1" id="F_YoLNtKe5j_-Mwn2KJ2">
    <mxGraphModel>
      <root>
        <mxCell id="0" />
        <mxCell id="1" parent="0" />
      </root>
    </mxGraphModel>
  </diagram>
</mxfile>
